<?xml version="1.0" encoding="iso-8859-1" standalone="no"?> 
<?xml-stylesheet href="octsqlg.css" type="text/css"?> 
<svg xmlns="http://www.w3.org/2000/svg" xmlns:xlink="http://www.w3.org/1999/xlink" width="132.56096pt" height="132.56096pt" viewBox="-80.50685 -80.50685 132.56096 132.56096 "> 
<g transform="translate(0, 52.05411 ) scale(1,-1) translate(0,80.50685 )"> 
                        <g> 
 <g stroke="rgb(0.0%,0.0%,0.0%)"> 
 <g fill="rgb(0.0%,0.0%,0.0%)"> 
 <g stroke-width="0.4pt"> 
 <g> 
 <g> 
 <g fill="rgb(75.0%,0.0%,25.0%)"> 
 <g> 
 <g fill="rgb(75.0%,0.0%,25.0%)"> 
 <path d=" M  9.375 0.0 C  9.375 5.17773 5.17773 9.375 0.0 9.375 C  -5.17773 9.375 -9.375 5.17773 -9.375 0.0 C  -9.375 -5.17773 -5.17773 -9.375 0.0 -9.375 C  5.17773 -9.375 9.375 -5.17773 9.375 0.0 Z M  0.0 0.0  " style="stroke:none"/> 
 </g> 
 </g> 
 <g> 
 <g transform="matrix(0.75,0.0,0.0,0.75,-1.875,-2.41666)"> 
 <g fill="rgb(100.0%,100.0%,100.0%)"> 
 <text style="stroke:none" transform="scale(1,-1) translate(2.5,0)" text-anchor="middle"  font-size="10"> 
0</text> 
</g> 
 </g> 
 </g> 
 </g> 
 </g> 
 <g> 
 <g fill="rgb(75.0%,0.0%,25.0%)"> 
 <g fill="rgb(50.0%,0.0%,50.0%)"> 
 <g> 
 <g fill="rgb(75.0%,0.0%,25.0%)"> 
 <g fill="rgb(50.0%,0.0%,50.0%)"> 
 <path d=" M  9.375 -71.13185 C  9.375 -65.95412 5.17773 -61.75685 0.0 -61.75685 C  -5.17773 -61.75685 -9.375 -65.95412 -9.375 -71.13185 C  -9.375 -76.30959 -5.17773 -80.50685 0.0 -80.50685 C  5.17773 -80.50685 9.375 -76.30959 9.375 -71.13185 Z M  0.0 -71.13185  " style="stroke:none"/> 
 </g> 
 </g> 
 </g> 
 <g> 
 <g transform="matrix(0.75,0.0,0.0,0.75,-1.875,-73.54851)"> 
 <g fill="rgb(100.0%,100.0%,100.0%)"> 
 <text style="stroke:none" transform="scale(1,-1) translate(2.5,0)" text-anchor="middle"  font-size="10"> 
1</text> 
</g> 
 </g> 
 </g> 
 </g> 
 </g> 
 </g> 
 <g> 
 <g fill="rgb(75.0%,0.0%,25.0%)"> 
 <g fill="rgb(0.0%,0.0%,100.0%)"> 
 <g> 
 <g fill="rgb(75.0%,0.0%,25.0%)"> 
 <g fill="rgb(0.0%,0.0%,100.0%)"> 
 <path d=" M  -61.75685 0.0 C  -61.75685 5.17773 -65.95412 9.375 -71.13185 9.375 C  -76.30959 9.375 -80.50685 5.17773 -80.50685 0.0 C  -80.50685 -5.17773 -76.30959 -9.375 -71.13185 -9.375 C  -65.95412 -9.375 -61.75685 -5.17773 -61.75685 0.0 Z M  -71.13185 0.0  " style="stroke:none"/> 
 </g> 
 </g> 
 </g> 
 <g> 
 <g transform="matrix(0.75,0.0,0.0,0.75,-73.00685,-2.41666)"> 
 <g fill="rgb(100.0%,100.0%,100.0%)"> 
 <text style="stroke:none" transform="scale(1,-1) translate(2.5,0)" text-anchor="middle"  font-size="10"> 
2</text> 
</g> 
 </g> 
 </g> 
 </g> 
 </g> 
 </g> 
 <g> 
 <g fill="rgb(75.0%,0.0%,25.0%)"> 
 <g fill="rgb(100.0%,50.0%,0.0%)"> 
 <g> 
 <g fill="rgb(75.0%,0.0%,25.0%)"> 
 <g fill="rgb(100.0%,50.0%,0.0%)"> 
 <path d=" M  52.05411 42.67911 C  52.05411 47.85684 47.85684 52.05411 42.67911 52.05411 C  37.50137 52.05411 33.30411 47.85684 33.30411 42.67911 C  33.30411 37.50137 37.50137 33.30411 42.67911 33.30411 C  47.85684 33.30411 52.05411 37.50137 52.05411 42.67911 Z M  42.67911 42.67911  " style="stroke:none"/> 
 </g> 
 </g> 
 </g> 
 <g> 
 <g transform="matrix(0.75,0.0,0.0,0.75,40.80411,40.26245)"> 
 <g fill="rgb(100.0%,100.0%,100.0%)"> 
 <text style="stroke:none" transform="scale(1,-1) translate(2.5,0)" text-anchor="middle"  font-size="10"> 
3</text> 
</g> 
 </g> 
 </g> 
 </g> 
 </g> 
 </g> 
 <g> 
 <path d=" M  0.0 -9.525 L  0.0 -55.60686  " style="fill:none"/> 
 <g> 
 <g transform="matrix(0.0,-1.0,1.0,0.0,0.0,-55.60686)"> 
 <g> 
 <g stroke-dasharray="none" stroke-dashoffset="0.0pt"> 
 <g stroke-linejoin="round"> 
 <path d=" M  0.79999 0.0 C  -0.2 0.2 -1.19998 0.59999 -2.39996 1.29997 C  -1.19998 0.4 -1.19998 -0.4 -2.39996 -1.29997 C  -1.19998 -0.59999 -0.2 -0.2 0.79999 0.0 Z  " /> 
 </g> 
 </g> 
 </g> 
 </g> 
 </g> 
 </g> 
 <g> 
 <path d=" M  -9.52501 0.0 L  -55.60686 0.0  " style="fill:none"/> 
 <g> 
 <g transform="matrix(-1.0,0.0,0.0,-1.0,-55.60686,0.0)"> 
 <g> 
 <g stroke-dasharray="none" stroke-dashoffset="0.0pt"> 
 <g stroke-linejoin="round"> 
 <path d=" M  0.79999 0.0 C  -0.2 0.2 -1.19998 0.59999 -2.39996 1.29997 C  -1.19998 0.4 -1.19998 -0.4 -2.39996 -1.29997 C  -1.19998 -0.59999 -0.2 -0.2 0.79999 0.0 Z  " /> 
 </g> 
 </g> 
 </g> 
 </g> 
 </g> 
 </g> 
 <g> 
 <path d=" M  6.7352 6.73534 L  31.70128 31.70073  " style="fill:none"/> 
 <g> 
 <g transform="matrix(0.7071,0.70715,-0.70715,0.7071,31.70128,31.70073)"> 
 <g> 
 <g stroke-dasharray="none" stroke-dashoffset="0.0pt"> 
 <g stroke-linejoin="round"> 
 <path d=" M  0.79999 0.0 C  -0.2 0.2 -1.19998 0.59999 -2.39996 1.29997 C  -1.19998 0.4 -1.19998 -0.4 -2.39996 -1.29997 C  -1.19998 -0.59999 -0.2 -0.2 0.79999 0.0 Z  " /> 
 </g> 
 </g> 
 </g> 
 </g> 
 </g> 
 </g> 
 <g> 
 <path d=" M  -1.65556 -61.74158 C  -5.20059 -41.6361 -5.20059 -29.49576 -2.69843 -15.30539  " style="fill:none"/> 
 <g> 
 <g transform="matrix(0.17381,0.98586,-0.98586,0.17381,-2.69843,-15.30539)"> 
 <g> 
 <g stroke-dasharray="none" stroke-dashoffset="0.0pt"> 
 <g stroke-linejoin="round"> 
 <path d=" M  0.79999 0.0 C  -0.2 0.2 -1.19998 0.59999 -2.39996 1.29997 C  -1.19998 0.4 -1.19998 -0.4 -2.39996 -1.29997 C  -1.19998 -0.59999 -0.2 -0.2 0.79999 0.0 Z  " /> 
 </g> 
 </g> 
 </g> 
 </g> 
 </g> 
 </g> 
 <g> 
 <path d=" M  3.34993 -62.19867 L  37.219 28.11876  " style="fill:none"/> 
 <g> 
 <g transform="matrix(0.3517,0.93787,-0.93787,0.3517,37.219,28.11876)"> 
 <g> 
 <g stroke-dasharray="none" stroke-dashoffset="0.0pt"> 
 <g stroke-linejoin="round"> 
 <path d=" M  0.79999 0.0 C  -0.2 0.2 -1.19998 0.59999 -2.39996 1.29997 C  -1.19998 0.4 -1.19998 -0.4 -2.39996 -1.29997 C  -1.19998 -0.59999 -0.2 -0.2 0.79999 0.0 Z  " /> 
 </g> 
 </g> 
 </g> 
 </g> 
 </g> 
 </g> 
 <g> 
 <path d=" M  -6.7352 -64.39665 L  -60.15402 -10.97801  " style="fill:none"/> 
 <g> 
 <g transform="matrix(-0.7071,0.70709,-0.70709,-0.7071,-60.15402,-10.97801)"> 
 <g> 
 <g stroke-dasharray="none" stroke-dashoffset="0.0pt"> 
 <g stroke-linejoin="round"> 
 <path d=" M  0.79999 0.0 C  -0.2 0.2 -1.19998 0.59999 -2.39996 1.29997 C  -1.19998 0.4 -1.19998 -0.4 -2.39996 -1.29997 C  -1.19998 -0.59999 -0.2 -0.2 0.79999 0.0 Z  " /> 
 </g> 
 </g> 
 </g> 
 </g> 
 </g> 
 </g> 
 <g> 
 <path d=" M  -68.66194 -9.21848 C  -60.14203 -41.01231 -41.01268 -60.1434 -15.02538 -67.1062  " style="fill:none"/> 
 <g> 
 <g transform="matrix(0.96782,-0.2593,0.2593,0.96782,-15.02538,-67.1062)"> 
 <g> 
 <g stroke-dasharray="none" stroke-dashoffset="0.0pt"> 
 <g stroke-linejoin="round"> 
 <path d=" M  0.79999 0.0 C  -0.2 0.2 -1.19998 0.59999 -2.39996 1.29997 C  -1.19998 0.4 -1.19998 -0.4 -2.39996 -1.29997 C  -1.19998 -0.59999 -0.2 -0.2 0.79999 0.0 Z  " /> 
 </g> 
 </g> 
 </g> 
 </g> 
 </g> 
 </g> 
 <g> 
 <path d=" M  -61.74158 1.65556 C  -41.6361 5.20059 -29.49576 5.20059 -15.30539 2.69843  " style="fill:none"/> 
 <g> 
 <g transform="matrix(0.98586,-0.17381,0.17381,0.98586,-15.30539,2.69843)"> 
 <g> 
 <g stroke-dasharray="none" stroke-dashoffset="0.0pt"> 
 <g stroke-linejoin="round"> 
 <path d=" M  0.79999 0.0 C  -0.2 0.2 -1.19998 0.59999 -2.39996 1.29997 C  -1.19998 0.4 -1.19998 -0.4 -2.39996 -1.29997 C  -1.19998 -0.59999 -0.2 -0.2 0.79999 0.0 Z  " /> 
 </g> 
 </g> 
 </g> 
 </g> 
 </g> 
 </g> 
 <g> 
 <path d=" M  -65.0722 7.36525 C  -39.04584 39.00067 -7.13655 50.96509 27.34909 45.22876  " style="fill:none"/> 
 <g> 
 <g transform="matrix(0.98744,-0.16423,0.16423,0.98744,27.34909,45.22876)"> 
 <g> 
 <g stroke-dasharray="none" stroke-dashoffset="0.0pt"> 
 <g stroke-linejoin="round"> 
 <path d=" M  0.79999 0.0 C  -0.2 0.2 -1.19998 0.59999 -2.39996 1.29997 C  -1.19998 0.4 -1.19998 -0.4 -2.39996 -1.29997 C  -1.19998 -0.59999 -0.2 -0.2 0.79999 0.0 Z  " /> 
 </g> 
 </g> 
 </g> 
 </g> 
 </g> 
 </g> 
 <g> 
 <path d=" M  44.2434 33.27373 C  50.96507 -7.13644 39.00073 -39.0459 12.00499 -61.25491  " style="fill:none"/> 
 <g> 
 <g transform="matrix(-0.77327,-0.63622,0.63622,-0.77327,12.00499,-61.25491)"> 
 <g> 
 <g stroke-dasharray="none" stroke-dashoffset="0.0pt"> 
 <g stroke-linejoin="round"> 
 <path d=" M  0.79999 0.0 C  -0.2 0.2 -1.19998 0.59999 -2.39996 1.29997 C  -1.19998 0.4 -1.19998 -0.4 -2.39996 -1.29997 C  -1.19998 -0.59999 -0.2 -0.2 0.79999 0.0 Z  " /> 
 </g> 
 </g> 
 </g> 
 </g> 
 </g> 
 </g> 
 <g> 
 <path d=" M  34.87596 37.21507 C  21.53534 27.87375 14.80537 21.14377 8.90596 12.7185  " style="fill:none"/> 
 <g> 
 <g transform="matrix(-0.57365,-0.81923,0.81923,-0.57365,8.90596,12.7185)"> 
 <g> 
 <g stroke-dasharray="none" stroke-dashoffset="0.0pt"> 
 <g stroke-linejoin="round"> 
 <path d=" M  0.79999 0.0 C  -0.2 0.2 -1.19998 0.59999 -2.39996 1.29997 C  -1.19998 0.4 -1.19998 -0.4 -2.39996 -1.29997 C  -1.19998 -0.59999 -0.2 -0.2 0.79999 0.0 Z  " /> 
 </g> 
 </g> 
 </g> 
 </g> 
 </g> 
 </g> 
 <g> 
 <path d=" M  33.74594 39.32918 L  -56.5715 5.46011  " style="fill:none"/> 
 <g> 
 <g transform="matrix(-0.93787,-0.3517,0.3517,-0.93787,-56.5715,5.46011)"> 
 <g> 
 <g stroke-dasharray="none" stroke-dashoffset="0.0pt"> 
 <g stroke-linejoin="round"> 
 <path d=" M  0.79999 0.0 C  -0.2 0.2 -1.19998 0.59999 -2.39996 1.29997 C  -1.19998 0.4 -1.19998 -0.4 -2.39996 -1.29997 C  -1.19998 -0.59999 -0.2 -0.2 0.79999 0.0 Z  " /> 
 </g> 
 </g> 
 </g> 
 </g> 
 </g> 
 </g> 
 </g> 
 </g> 
 </g> 
 </g> 
 </g> 
 
                                        </g> 
</svg> 
